<svg width="31" height="31" viewBox="0 0 31 31" fill="none" xmlns="http://www.w3.org/2000/svg">
<path fill-rule="evenodd" clip-rule="evenodd" d="M15 27.125C21.4203 27.125 26.625 21.9203 26.625 15.5C26.625 9.07969 21.4203 3.875 15 3.875C8.57969 3.875 3.375 9.07969 3.375 15.5C3.375 21.9203 8.57969 27.125 15 27.125ZM20.9349 12.2652C21.2885 11.8409 21.2311 11.2103 20.8069 10.8568C20.3826 10.5032 19.752 10.5605 19.3984 10.9848L14.3422 17.0524C13.9954 17.4684 13.8005 17.6988 13.6449 17.8403L13.639 17.8457L13.6326 17.8409C13.4648 17.714 13.2498 17.5022 12.8668 17.1193L10.5404 14.7929C10.1499 14.4024 9.51675 14.4024 9.12623 14.7929C8.7357 15.1834 8.7357 15.8166 9.12623 16.2071L11.4526 18.5335L11.4934 18.5743L11.4935 18.5743C11.8199 18.901 12.134 19.2152 12.4263 19.4361C12.7536 19.6837 13.1824 19.9165 13.7318 19.8915C14.2812 19.8666 14.6871 19.596 14.9907 19.3198C15.2617 19.0733 15.5461 18.7319 15.8416 18.3771L15.8786 18.3327L20.9349 12.2652Z" fill="#00C76B"/>
</svg>
