<svg width="32" height="31" viewBox="0 0 32 31" fill="none" xmlns="http://www.w3.org/2000/svg">
<path fill-rule="evenodd" clip-rule="evenodd" d="M27.625 15.5C27.625 21.9203 22.4203 27.125 16 27.125C9.57969 27.125 4.375 21.9203 4.375 15.5C4.375 9.07969 9.57969 3.875 16 3.875C22.4203 3.875 27.625 9.07969 27.625 15.5ZM20.5821 20.0821C20.1916 20.4726 19.5584 20.4726 19.1679 20.0821L16 16.9142L12.8321 20.0821C12.4416 20.4726 11.8084 20.4726 11.4179 20.0821C11.0274 19.6916 11.0274 19.0584 11.4179 18.6679L14.5858 15.5L11.4179 12.3321C11.0274 11.9416 11.0274 11.3084 11.4179 10.9179C11.8084 10.5274 12.4416 10.5274 12.8321 10.9179L16 14.0858L19.1679 10.9179C19.5584 10.5274 20.1916 10.5274 20.5821 10.9179C20.9726 11.3084 20.9726 11.9416 20.5821 12.3321L17.4142 15.5L20.5821 18.6679C20.9726 19.0584 20.9726 19.6916 20.5821 20.0821Z" fill="#FF4446"/>
</svg>
